<?xml version="1.0" standalone="no"?>
<!DOCTYPE svg PUBLIC "-//W3C//DTD SVG 1.1//EN"
"http://www.w3.org/Graphics/SVG/1.1/DTD/svg11.dtd">

<svg width="439" height="458" view_box="0 0 439 458"
xmlns="http://www.w3.org/2000/svg"
xmlns:link="http://www.w3.org/1999/xlink">\n\n<desc>Généré par Mocodo 2.3.7 le Mon, 20 Sep 2021 02:26:59</desc>

<rect id="frame" x="0" y="0" width="439" height="458" fill="none" stroke="none" stroke-width="0"/>

<!-- Association own -->
<line x1="296" y1="128" x2="173" y2="297" stroke="#726f83" stroke-width="2"/>
<text x="218" y="195.588034385" fill="#726f83" font-family="Verdana" font-size="12">0,N</text>
<line x1="55" y1="128" x2="173" y2="297" stroke="#726f83" stroke-width="2"/>
<text x="106" y="191.202778363" fill="#726f83" font-family="Verdana" font-size="12">1,1</text>
<g id="association-own">
	<path d="M 179 272 a 14 14 90 0 1 14 14 V 297 h -40 V 286 a 14 14 90 0 1 14 -14" fill="#b2bba4" stroke="#b2bba4" stroke-width="0"/>
	<path d="M 193 297.0 v 11 a 14 14 90 0 1 -14 14 H 167 a 14 14 90 0 1 -14 -14 V 297.0 H 40" fill="#ccd6ba" stroke="#ccd6ba" stroke-width="0"/>
	<rect x="153" y="272" width="40" height="50" fill="none" rx="14" stroke="#85956b" stroke-width="2"/>
	<line x1="153" y1="297" x2="193" y2="297" stroke="#85956b" stroke-width="1"/>
	<text x="160" y="289.7" fill="#27360c" font-family="Verdana" font-size="12">own</text>
</g>

<!-- Association content -->
<line x1="55" y1="128" x2="55" y2="297" stroke="#726f83" stroke-width="2"/>
<text x="28.0" y="247" fill="#726f83" font-family="Verdana" font-size="12">1,N</text>
<line x1="55" y1="398" x2="55" y2="297" stroke="#726f83" stroke-width="2"/>
<text x="60.0" y="339" fill="#726f83" font-family="Verdana" font-size="12">0,N</text>
<g id="association-content">
	<path d="M 71 272 a 14 14 90 0 1 14 14 V 297 h -60 V 286 a 14 14 90 0 1 14 -14" fill="#b2bba4" stroke="#b2bba4" stroke-width="0"/>
	<path d="M 85 297.0 v 11 a 14 14 90 0 1 -14 14 H 39 a 14 14 90 0 1 -14 -14 V 297.0 H 60" fill="#ccd6ba" stroke="#ccd6ba" stroke-width="0"/>
	<rect x="25" y="272" width="60" height="50" fill="none" rx="14" stroke="#85956b" stroke-width="2"/>
	<line x1="25" y1="297" x2="85" y2="297" stroke="#85956b" stroke-width="1"/>
	<text x="32" y="289.7" fill="#27360c" font-family="Verdana" font-size="12">content</text>
</g>

<!-- Association learning -->
<line x1="296" y1="128" x2="296" y2="297" stroke="#726f83" stroke-width="2"/>
<text x="301.0" y="264" fill="#726f83" font-family="Verdana" font-size="12">1,N</text>
<line x1="296" y1="398" x2="296" y2="297" stroke="#726f83" stroke-width="2"/>
<text x="269.0" y="339" fill="#726f83" font-family="Verdana" font-size="12">0,N</text>
<g id="association-learning">
	<path d="M 314 272 a 14 14 90 0 1 14 14 V 297 h -64 V 286 a 14 14 90 0 1 14 -14" fill="#b2bba4" stroke="#b2bba4" stroke-width="0"/>
	<path d="M 328 297.0 v 11 a 14 14 90 0 1 -14 14 H 278 a 14 14 90 0 1 -14 -14 V 297.0 H 64" fill="#ccd6ba" stroke="#ccd6ba" stroke-width="0"/>
	<rect x="264" y="272" width="64" height="50" fill="none" rx="14" stroke="#85956b" stroke-width="2"/>
	<line x1="264" y1="297" x2="328" y2="297" stroke="#85956b" stroke-width="1"/>
	<text x="271" y="289.7" fill="#27360c" font-family="Verdana" font-size="12">learning</text>
</g>

<!-- Association participate -->
<line x1="296" y1="128" x2="173" y2="128" stroke="#726f83" stroke-width="2"/>
<text x="218" y="120.0" fill="#726f83" font-family="Verdana" font-size="12">0,N</text>
<line x1="55" y1="128" x2="173" y2="128" stroke="#726f83" stroke-width="2"/>
<text x="106" y="120.0" fill="#726f83" font-family="Verdana" font-size="12">0,N</text>
<g id="association-participate">
	<path d="M 199 103 a 14 14 90 0 1 14 14 V 128 h -80 V 117 a 14 14 90 0 1 14 -14" fill="#b2bba4" stroke="#b2bba4" stroke-width="0"/>
	<path d="M 213 128.0 v 11 a 14 14 90 0 1 -14 14 H 147 a 14 14 90 0 1 -14 -14 V 128.0 H 80" fill="#ccd6ba" stroke="#ccd6ba" stroke-width="0"/>
	<rect x="133" y="103" width="80" height="50" fill="none" rx="14" stroke="#85956b" stroke-width="2"/>
	<line x1="133" y1="128" x2="213" y2="128" stroke="#85956b" stroke-width="1"/>
	<text x="140" y="120.7" fill="#27360c" font-family="Verdana" font-size="12">participate</text>
</g>

<!-- Association speaking -->
<line x1="296" y1="128" x2="395" y2="297" stroke="#726f83" stroke-width="2"/>
<text x="352" y="211.604472142" fill="#726f83" font-family="Verdana" font-size="12">0,N</text>
<line x1="296" y1="398" x2="395" y2="297" stroke="#726f83" stroke-width="2"/>
<text x="341" y="367.220913233" fill="#726f83" font-family="Verdana" font-size="12">0,N</text>
<g id="association-speaking">
	<path d="M 416 272 a 14 14 90 0 1 14 14 V 297 h -70 V 286 a 14 14 90 0 1 14 -14" fill="#b2bba4" stroke="#b2bba4" stroke-width="0"/>
	<path d="M 430 297.0 v 11 a 14 14 90 0 1 -14 14 H 374 a 14 14 90 0 1 -14 -14 V 297.0 H 70" fill="#ccd6ba" stroke="#ccd6ba" stroke-width="0"/>
	<rect x="360" y="272" width="70" height="50" fill="none" rx="14" stroke="#85956b" stroke-width="2"/>
	<line x1="360" y1="297" x2="430" y2="297" stroke="#85956b" stroke-width="1"/>
	<text x="367" y="289.7" fill="#27360c" font-family="Verdana" font-size="12">speaking</text>
</g>

<!-- Association speak -->
<line x1="55" y1="128" x2="173" y2="398" stroke="#726f83" stroke-width="2"/>
<text x="76.0012002603" y="247" fill="#726f83" font-family="Verdana" font-size="12">1,N</text>
<line x1="296" y1="398" x2="173" y2="398" stroke="#726f83" stroke-width="2"/>
<text x="229" y="415.0" fill="#726f83" font-family="Verdana" font-size="12">0,N</text>
<g id="association-speak">
	<path d="M 184 373 a 14 14 90 0 1 14 14 V 398 h -50 V 387 a 14 14 90 0 1 14 -14" fill="#b2bba4" stroke="#b2bba4" stroke-width="0"/>
	<path d="M 198 398.0 v 11 a 14 14 90 0 1 -14 14 H 162 a 14 14 90 0 1 -14 -14 V 398.0 H 50" fill="#ccd6ba" stroke="#ccd6ba" stroke-width="0"/>
	<rect x="148" y="373" width="50" height="50" fill="none" rx="14" stroke="#85956b" stroke-width="2"/>
	<line x1="148" y1="398" x2="198" y2="398" stroke="#85956b" stroke-width="1"/>
	<text x="155" y="390.7" fill="#27360c" font-family="Verdana" font-size="12">speak</text>
</g>

<!-- Entity TAG -->
<g id="entity-TAG">
	<g id="frame-TAG">
		<rect x="15" y="347" width="80" height="25" fill="#97b8ff" stroke="#97b8ff" stroke-width="0"/>
		<rect x="15" y="372.0" width="80" height="77" fill="#c0d4ff" stroke="#c0d4ff" stroke-width="0"/>
		<rect x="15" y="347" width="80" height="102" fill="none" stroke="#578dff" stroke-width="2"/>
		<line x1="15" y1="372" x2="95" y2="372" stroke="#578dff" stroke-width="1"/>
	</g>
	<text x="42" y="364.7" fill="#131114" font-family="Verdana" font-size="12">TAG</text>
	<text x="20" y="389.7" fill="#3e3c42" font-family="Verdana" font-size="12">name</text>
	<line x1="20" y1="392" x2="55" y2="392" stroke="#3e3c42" stroke-width="1"/>
	<text x="20" y="406.8" fill="#3e3c42" font-family="Verdana" font-size="12">color</text>
	<text x="20" y="423.8" fill="#3e3c42" font-family="Verdana" font-size="12">created_at</text>
	<text x="20" y="440.8" fill="#3e3c42" font-family="Verdana" font-size="12">updated_at</text>
</g>

<!-- Entity EVENT -->
<g id="entity-EVENT">
	<g id="frame-EVENT">
		<rect x="9" y="26" width="92" height="25" fill="#97b8ff" stroke="#97b8ff" stroke-width="0"/>
		<rect x="9" y="51.0" width="92" height="179" fill="#c0d4ff" stroke="#c0d4ff" stroke-width="0"/>
		<rect x="9" y="26" width="92" height="204" fill="none" stroke="#578dff" stroke-width="2"/>
		<line x1="9" y1="51" x2="101" y2="51" stroke="#578dff" stroke-width="1"/>
	</g>
	<text x="34" y="43.7" fill="#131114" font-family="Verdana" font-size="12">EVENT</text>
	<text x="14" y="68.7" fill="#3e3c42" font-family="Verdana" font-size="12">title</text>
	<line x1="14" y1="71" x2="38" y2="71" stroke="#3e3c42" stroke-width="1"/>
	<text x="14" y="85.7" fill="#3e3c42" font-family="Verdana" font-size="12">img-url</text>
	<text x="14" y="102.7" fill="#3e3c42" font-family="Verdana" font-size="12">places_left</text>
	<text x="14" y="119.7" fill="#3e3c42" font-family="Verdana" font-size="12">description</text>
	<text x="14" y="136.8" fill="#3e3c42" font-family="Verdana" font-size="12">starting_date</text>
	<text x="14" y="153.8" fill="#3e3c42" font-family="Verdana" font-size="12">ending_date</text>
	<text x="14" y="170.8" fill="#3e3c42" font-family="Verdana" font-size="12">longitude</text>
	<text x="14" y="187.8" fill="#3e3c42" font-family="Verdana" font-size="12">latitude</text>
	<text x="14" y="204.8" fill="#3e3c42" font-family="Verdana" font-size="12">created_at</text>
	<text x="14" y="221.8" fill="#3e3c42" font-family="Verdana" font-size="12">updated_at</text>
</g>

<!-- Entity LANGUAGE -->
<g id="entity-LANGUAGE">
	<g id="frame-LANGUAGE">
		<rect x="256" y="347" width="80" height="25" fill="#97b8ff" stroke="#97b8ff" stroke-width="0"/>
		<rect x="256" y="372.0" width="80" height="77" fill="#c0d4ff" stroke="#c0d4ff" stroke-width="0"/>
		<rect x="256" y="347" width="80" height="102" fill="none" stroke="#578dff" stroke-width="2"/>
		<line x1="256" y1="372" x2="336" y2="372" stroke="#578dff" stroke-width="1"/>
	</g>
	<text x="262" y="364.7" fill="#131114" font-family="Verdana" font-size="12">LANGUAGE</text>
	<text x="261" y="389.7" fill="#3e3c42" font-family="Verdana" font-size="12">name</text>
	<line x1="261" y1="392" x2="296" y2="392" stroke="#3e3c42" stroke-width="1"/>
	<text x="261" y="406.8" fill="#3e3c42" font-family="Verdana" font-size="12">img_url</text>
	<text x="261" y="423.8" fill="#3e3c42" font-family="Verdana" font-size="12">created_at</text>
	<text x="261" y="440.8" fill="#3e3c42" font-family="Verdana" font-size="12">updated_at</text>
</g>

<!-- Entity USER -->
<g id="entity-USER">
	<g id="frame-USER">
		<rect x="245" y="9" width="102" height="25" fill="#97b8ff" stroke="#97b8ff" stroke-width="0"/>
		<rect x="245" y="34.0" width="102" height="213" fill="#c0d4ff" stroke="#c0d4ff" stroke-width="0"/>
		<rect x="245" y="9" width="102" height="238" fill="none" stroke="#578dff" stroke-width="2"/>
		<line x1="245" y1="34" x2="347" y2="34" stroke="#578dff" stroke-width="1"/>
	</g>
	<text x="279" y="26.7" fill="#131114" font-family="Verdana" font-size="12">USER</text>
	<text x="250" y="51.7" fill="#3e3c42" font-family="Verdana" font-size="12">firstname</text>
	<line x1="250" y1="54" x2="308" y2="54" stroke="#3e3c42" stroke-width="1"/>
	<text x="250" y="68.7" fill="#3e3c42" font-family="Verdana" font-size="12">lastname</text>
	<text x="250" y="85.7" fill="#3e3c42" font-family="Verdana" font-size="12">gender</text>
	<text x="250" y="102.7" fill="#3e3c42" font-family="Verdana" font-size="12">email</text>
	<text x="250" y="119.7" fill="#3e3c42" font-family="Verdana" font-size="12">password</text>
	<text x="250" y="136.8" fill="#3e3c42" font-family="Verdana" font-size="12">description</text>
	<text x="250" y="153.8" fill="#3e3c42" font-family="Verdana" font-size="12">age</text>
	<text x="250" y="170.8" fill="#3e3c42" font-family="Verdana" font-size="12">city</text>
	<text x="250" y="187.8" fill="#3e3c42" font-family="Verdana" font-size="12">phone_number</text>
	<text x="250" y="204.8" fill="#3e3c42" font-family="Verdana" font-size="12">img_url</text>
	<text x="250" y="221.8" fill="#3e3c42" font-family="Verdana" font-size="12">created_at</text>
	<text x="250" y="238.8" fill="#3e3c42" font-family="Verdana" font-size="12">updated_at</text>
</g>
</svg>