<?xml version="1.0"?>
<svg xmlns="http://www.w3.org/2000/svg" xmlns:xlink="http://www.w3.org/1999/xlink" xmlns:svgjs="http://svgjs.com/svgjs" version="1.1" width="512" height="512" x="0" y="0" viewBox="0 0 512.001 512.001" style="enable-background:new 0 0 512 512" xml:space="preserve" class=""><g>
<g xmlns="http://www.w3.org/2000/svg">
	<g>
		<path d="M351.236,0c-50.526,0-96.567,27.786-120.155,72.514c-1.933,3.664-0.529,8.2,3.135,10.132    c3.664,1.935,8.2,0.529,10.132-3.135C265.333,39.719,306.29,15,351.236,15c66.586,0,120.758,54.172,120.758,120.758    s-54.172,120.758-120.758,120.758c-22.687,0-44.793-6.324-63.928-18.29c-3.514-2.195-8.14-1.129-10.336,2.383    c-2.196,3.512-1.129,8.14,2.383,10.336c21.522,13.458,46.378,20.571,71.88,20.571c74.857,0,135.758-60.901,135.758-135.758    C486.994,60.901,426.093,0,351.236,0z" fill="#f5f5f5" data-original="#000000" style="" class=""/>
	</g>
</g>
<g xmlns="http://www.w3.org/2000/svg">
	<g>
		<path d="M276.298,347.667l-60.109-27.563c-3.022-1.386-4.976-4.43-4.976-7.756v-19.905c18.055-11.799,31.25-30.658,35.407-53.137    c0.006-0.007,0.013-0.015,0.02-0.022c2.138,0.128,4.3-0.063,6.425-0.567c9.911-2.346,17.104-11.851,17.104-22.601v-5.743    c0-7.948-3.99-15.09-10.151-19.21c1.84-7.199,2.781-14.566,2.781-21.983c0-32.57-17.645-61.252-44.225-77.672    c-0.158-28.384-23.291-51.427-51.711-51.427c-28.419,0-51.552,23.044-51.71,51.427c-26.581,16.42-44.226,45.102-44.226,77.673    c0,7.396,0.936,14.744,2.765,21.924c-6.158,4.099-10.135,11.271-10.135,19.356v5.656c0,10.75,7.193,20.255,17.104,22.601    c2.126,0.503,4.287,0.695,6.426,0.566c0.007,0.007,0.014,0.015,0.02,0.022c4.157,22.479,17.353,41.339,35.408,53.137v19.905    c0,3.326-1.953,6.37-4.976,7.756l-60.11,27.563c-20.719,9.501-33.707,31.17-32.32,53.921l6.305,103.369    c0.243,3.979,3.545,7.043,7.479,7.043c0.153,0,0.308-0.005,0.463-0.014c4.134-0.252,7.282-3.809,7.029-7.943L40.08,400.675    c-0.575-9.438,2.24-18.619,7.551-26.062l20.446,24.534c6.589,7.908,10.218,17.931,10.218,28.224V504.5c0,4.143,3.358,7.5,7.5,7.5    c4.142,0,7.5-3.357,7.5-7.5v-77.128c0-13.795-4.864-27.229-13.695-37.827l-21.133-25.359c1.651-1.08,3.39-2.048,5.213-2.884    l35.933-16.477c10.241,27.934,37.015,46.934,67.248,46.934c30.33,0,57.014-18.972,67.246-46.935l35.935,16.478    c1.823,0.836,3.563,1.804,5.213,2.884l-21.133,25.359c-8.832,10.598-13.695,24.031-13.695,37.827V504.5c0,4.143,3.358,7.5,7.5,7.5    c4.142,0,7.5-3.357,7.5-7.5v-77.128c0-10.293,3.629-20.317,10.219-28.224l20.446-24.534c5.311,7.444,8.126,16.624,7.551,26.062    l-6.305,103.368c-0.252,4.135,2.895,7.691,7.029,7.943c0.155,0.009,0.31,0.014,0.463,0.014c3.934,0,7.236-3.064,7.479-7.043    l6.305-103.369C310.006,378.837,297.017,357.168,276.298,347.667z M166.865,55.081c17.424,0,32.042,12.203,35.782,28.509    c-11.063-4.292-23.139-6.661-35.782-6.661c-12.642,0-24.718,2.369-35.781,6.66C134.824,67.284,149.441,55.081,166.865,55.081z     M101.844,236.498c-1.355-7.378-8.193-12.741-15.551-12.194c-0.707,0.051-1.44-0.01-2.174-0.184    c-3.169-0.75-5.56-4.191-5.56-8.004v-5.656c0-3.832,2.579-7.287,5.871-7.864c2.767-0.487,5.425,0.531,7.104,2.722    c1.397,1.822,3.26,3.125,5.392,3.77c3.114,0.939,6.55,0.388,9.19-1.477c6.095-4.302,11.262-9.76,15.356-16.22    c2.217-3.499,1.179-8.132-2.32-10.35c-3.499-2.217-8.132-1.178-10.35,2.32c-2.334,3.683-5.126,6.919-8.329,9.656    c-3.422-3.013-7.676-4.881-12.187-5.393c-1.559-6.042-2.359-12.224-2.359-18.444c0-42.596,36.308-77.251,80.936-77.251    c44.628,0,80.936,34.655,80.936,77.251c0,6.212-0.797,12.384-2.352,18.418c-2.204,0.157-4.458,0.523-6.522,1.072l-6.068-4.99    c-2.902-2.385-6.541-3.579-10.249-3.359c-6.757,0.398-24.649,0.867-44.829-3.391c-24.939-5.261-44.043-15.659-56.782-30.905    c-2.656-3.179-7.386-3.602-10.564-0.946c-3.179,2.656-3.602,7.386-0.946,10.564c14.949,17.891,36.884,29.991,65.196,35.964    c21.841,4.607,41.24,4.126,48.69,3.694l9.352,7.69c2.422,1.991,5.824,2.268,8.533,0.691c1.356-0.759,5.975-1.482,8.02-1.073    c3.358,0.668,5.891,4.005,5.891,7.763v5.743c0,3.813-2.39,7.254-5.56,8.004c-0.734,0.174-1.464,0.234-2.172,0.184    c-7.361-0.536-14.197,4.814-15.553,12.193c-5.763,31.378-33.108,54.152-65.021,54.152    C134.952,290.649,107.607,267.875,101.844,236.498z M166.865,376.758c-24.303,0-45.774-15.525-53.558-38.211l10.487-4.809    c8.337-3.822,13.724-12.219,13.724-21.391v-12.2c9.144,3.551,19.048,5.502,29.348,5.502s20.204-1.951,29.349-5.502v12.2    c0,9.172,5.387,17.568,13.724,21.391l10.494,4.812C212.653,361.262,191.245,376.758,166.865,376.758z" fill="#f5f5f5" data-original="#000000" style="" class=""/>
	</g>
</g>
<g xmlns="http://www.w3.org/2000/svg">
	<g>
		<path d="M405.595,107.846c-4.382-21.026-21.453-38.097-42.479-42.479c-16.769-3.494-33.877,0.588-46.933,11.203    c-13.056,10.615-20.544,26.345-20.544,43.156c0,4.142,3.358,7.5,7.5,7.5c4.142,0,7.5-3.358,7.5-7.5    c0-12.276,5.47-23.764,15.007-31.518c9.537-7.754,22.079-10.727,34.409-8.156c15.272,3.183,27.672,15.583,30.855,30.855    c4.418,21.199-7.698,41.735-28.182,47.768c-11.36,3.346-18.993,13.201-18.993,24.522v0.658c0,4.142,3.358,7.5,7.5,7.5    c4.142,0,7.5-3.358,7.5-7.5v-0.658c0.001-4.611,3.309-8.683,8.232-10.134C395.015,164.802,411.622,136.765,405.595,107.846z" fill="#f5f5f5" data-original="#000000" style="" class=""/>
	</g>
</g>
<g xmlns="http://www.w3.org/2000/svg">
	<g>
		<path d="M351.316,208.419h-0.08c-4.142,0-7.46,3.358-7.46,7.5c0,4.142,3.398,7.5,7.54,7.5c4.142,0,7.5-3.358,7.5-7.5    C358.816,211.777,355.458,208.419,351.316,208.419z" fill="#f5f5f5" data-original="#000000" style="" class=""/>
	</g>
</g>
<g xmlns="http://www.w3.org/2000/svg">
</g>
<g xmlns="http://www.w3.org/2000/svg">
</g>
<g xmlns="http://www.w3.org/2000/svg">
</g>
<g xmlns="http://www.w3.org/2000/svg">
</g>
<g xmlns="http://www.w3.org/2000/svg">
</g>
<g xmlns="http://www.w3.org/2000/svg">
</g>
<g xmlns="http://www.w3.org/2000/svg">
</g>
<g xmlns="http://www.w3.org/2000/svg">
</g>
<g xmlns="http://www.w3.org/2000/svg">
</g>
<g xmlns="http://www.w3.org/2000/svg">
</g>
<g xmlns="http://www.w3.org/2000/svg">
</g>
<g xmlns="http://www.w3.org/2000/svg">
</g>
<g xmlns="http://www.w3.org/2000/svg">
</g>
<g xmlns="http://www.w3.org/2000/svg">
</g>
<g xmlns="http://www.w3.org/2000/svg">
</g>
</g></svg>
