<?xml version="1.0" encoding="UTF-8" standalone="no"?>
<!-- Created with Inkscape (http://www.inkscape.org/) -->

<svg
   xmlns:dc="http://purl.org/dc/elements/1.1/"
   xmlns:cc="http://creativecommons.org/ns#"
   xmlns:rdf="http://www.w3.org/1999/02/22-rdf-syntax-ns#"
   xmlns:svg="http://www.w3.org/2000/svg"
   xmlns="http://www.w3.org/2000/svg"
   xmlns:sodipodi="http://sodipodi.sourceforge.net/DTD/sodipodi-0.dtd"
   xmlns:inkscape="http://www.inkscape.org/namespaces/inkscape"
   width="63.046066mm"
   height="68.625801mm"
   viewBox="0 0 223.39157 243.16229"
   id="svg2"
   version="1.1"
   inkscape:version="0.91 r13725"
   sodipodi:docname="red flag.svg">
  <defs
     id="defs4" />
  <sodipodi:namedview
     id="base"
     pagecolor="#ffffff"
     bordercolor="#666666"
     borderopacity="1.0"
     inkscape:pageopacity="0.0"
     inkscape:pageshadow="2"
     inkscape:zoom="1.4"
     inkscape:cx="225.92372"
     inkscape:cy="108.57917"
     inkscape:document-units="px"
     inkscape:current-layer="layer1"
     showgrid="false"
     fit-margin-top="0"
     fit-margin-left="0"
     fit-margin-right="0"
     fit-margin-bottom="0"
     inkscape:window-width="1366"
     inkscape:window-height="714"
     inkscape:window-x="0"
     inkscape:window-y="27"
     inkscape:window-maximized="1" />
  <metadata
     id="metadata7">
    <rdf:RDF>
      <cc:Work
         rdf:about="">
        <dc:format>image/svg+xml</dc:format>
        <dc:type
           rdf:resource="http://purl.org/dc/dcmitype/StillImage" />
        <dc:title></dc:title>
      </cc:Work>
    </rdf:RDF>
  </metadata>
  <g
     inkscape:label="Calque 1"
     inkscape:groupmode="layer"
     id="layer1"
     transform="translate(-88.385251,-444.07773)">
    <path
       style="opacity:1;fill:#888a85;fill-opacity:1;stroke:none;stroke-width:20;stroke-linecap:round;stroke-linejoin:round;stroke-miterlimit:4;stroke-dasharray:none;stroke-dashoffset:0;stroke-opacity:1"
       d="m 166.90519,448.44132 c -5.81755,0.19695 -10.70798,4.34956 -14.52291,8.37914 -5.36586,6.84649 -8.37125,16.8911 -3.82359,24.93912 1.54366,2.55661 3.14099,6.5922 6.59165,6.70016 1.37236,-0.91964 4.23307,-1.12971 3.86797,1.25381 -3.39437,11.66985 -8.42596,22.83445 -12.35424,34.35625 -11.21914,30.35909 -22.64409,60.66923 -32.32943,91.57115 -6.65885,20.53081 -13.12307,41.1731 -20.120968,61.54369 0.125748,2.51198 3.073029,0.54262 4.490444,0.90756 3.849614,0.9484 3.563654,-3.98458 4.864384,-6.32823 13.93206,-41.9701 26.6359,-84.38735 42.5226,-125.66825 6.74979,-17.81917 13.08139,-35.8043 19.93909,-53.57663 0.54101,-2.71906 4.41536,-0.42953 3.02454,1.605 0.0109,2.68374 3.68844,1.35486 5.29738,1.40178 6.72538,-0.6469 13.21784,-5.59508 15.03194,-12.17313 1.53955,-10.62262 -2.09231,-22.00431 -9.43072,-29.83304 -3.36075,-3.57026 -8.2181,-5.16849 -13.04814,-5.07838 z"
       id="path4182"
       inkscape:connector-curvature="0" />
    <path
       style="opacity:1;fill:#555753;fill-opacity:1;stroke:none;stroke-width:20;stroke-linecap:round;stroke-linejoin:round;stroke-miterlimit:4;stroke-dasharray:none;stroke-dashoffset:0;stroke-opacity:1"
       id="path4148"
       d="m 88.515401,680.33277 c 0.268196,-0.97586 0.590222,-1.93614 0.915153,-2.89428 0.765179,-2.23536 1.571514,-4.45637 2.369411,-6.68018 1.246366,-3.43503 2.417547,-6.89637 3.571636,-10.36325 1.627589,-4.90347 3.217995,-9.81931 4.789589,-14.74099 1.91253,-5.95066 3.8095,-11.90621 5.69062,-17.86686 2.22601,-6.94092 4.46165,-13.87874 6.68935,-20.81912 2.3267,-7.20848 4.71113,-14.39827 7.14543,-21.5711 2.32249,-6.89188 4.754,-13.74571 7.2511,-20.576 2.30068,-6.28728 4.68005,-12.54526 7.01944,-18.81813 2.05646,-5.4553 4.09778,-10.9162 6.10518,-16.38974 1.59928,-4.38002 3.17819,-8.76741 4.75926,-13.15402 1.28902,-3.57922 2.61769,-7.144 3.9933,-10.69082 1.10562,-2.87588 2.20492,-5.75418 3.2803,-8.64152 0.80863,-2.17166 1.56568,-4.36176 2.29733,-6.56037 0.39623,-1.20047 0.20863,-0.61422 0.56442,-1.75823 1.062,-3.40987 5.88429,-1.90797 4.82229,1.5019 l 0,0 c -0.38331,1.22908 -0.18532,0.61196 -0.59437,1.85123 -0.7505,2.25491 -1.52716,4.50106 -2.35654,6.72835 -1.08335,2.90859 -2.19065,5.80812 -3.3045,8.70515 -1.3612,3.50893 -2.67523,7.0359 -3.95068,10.57691 -1.58426,4.39545 -3.16636,8.79168 -4.7689,13.18051 -2.01057,5.48215 -4.05498,10.95168 -6.11471,16.41555 -2.33563,6.26267 -4.71107,12.51049 -7.00814,18.78752 -2.48371,6.79338 -4.90206,13.61024 -7.21196,20.46493 -2.42542,7.14633 -4.80091,14.30964 -7.11915,21.49149 -2.22518,6.93254 -4.45824,13.86254 -6.68186,20.79557 -1.88284,5.9661 -3.78152,11.9271 -5.6958,17.88319 -1.57791,4.94137 -3.17468,9.87688 -4.80881,14.79995 -1.166506,3.50378 -2.35025,7.00197 -3.609805,10.47362 -0.788061,2.1964 -1.584546,4.38999 -2.340612,6.59768 -0.298935,0.88008 -0.596229,1.76182 -0.841543,2.65861 -0.981147,3.43401 -5.837576,2.04646 -4.856429,-1.38755 z"
       inkscape:connector-curvature="0" />
    <path
       inkscape:connector-curvature="0"
       d="m 98.616926,683.8683 c 0.268196,-0.97586 0.590222,-1.93614 0.915153,-2.89428 0.765181,-2.23536 1.571511,-4.45637 2.369411,-6.68018 1.24637,-3.43503 2.41755,-6.89637 3.57164,-10.36325 1.62759,-4.90347 3.21799,-9.81931 4.78959,-14.74099 1.91253,-5.95066 3.8095,-11.90621 5.69062,-17.86686 2.22601,-6.94092 4.46165,-13.87874 6.68935,-20.81912 2.3267,-7.20848 4.71113,-14.39827 7.14543,-21.5711 2.32249,-6.89188 4.754,-13.74571 7.2511,-20.576 2.30068,-6.28728 4.68005,-12.54526 7.01944,-18.81813 2.05646,-5.4553 4.09778,-10.9162 6.10518,-16.38974 1.59928,-4.38002 3.17819,-8.76741 4.75926,-13.15402 1.28902,-3.57922 2.61769,-7.144 3.9933,-10.69082 1.10562,-2.87588 2.20492,-5.75418 3.2803,-8.64152 0.80863,-2.17166 1.56568,-4.36176 2.29733,-6.56037 0.39623,-1.20047 0.20863,-0.61422 0.56442,-1.75823 1.062,-3.40987 5.88429,-1.90797 4.82229,1.5019 l 0,0 c -0.38331,1.22908 -0.18532,0.61196 -0.59437,1.85123 -0.7505,2.25491 -1.52716,4.50106 -2.35654,6.72835 -1.08335,2.90859 -2.19065,5.80812 -3.3045,8.70515 -1.3612,3.50893 -2.67523,7.0359 -3.95068,10.57691 -1.58426,4.39545 -3.16636,8.79168 -4.7689,13.18051 -2.01057,5.48215 -4.05498,10.95168 -6.11471,16.41555 -2.33563,6.26267 -4.71107,12.51049 -7.00814,18.78752 -2.48371,6.79338 -4.90206,13.61024 -7.21196,20.46493 -2.42542,7.14633 -4.80091,14.30964 -7.11915,21.49149 -2.22518,6.93254 -4.45824,13.86254 -6.68186,20.79557 -1.88284,5.9661 -3.78152,11.9271 -5.6958,17.88319 -1.57791,4.94137 -3.17468,9.87688 -4.80881,14.79995 -1.16651,3.50378 -2.35025,7.00197 -3.60981,10.47362 -0.78806,2.1964 -1.58455,4.38999 -2.34061,6.59768 -0.29894,0.88008 -0.59623,1.76182 -0.84154,2.65861 -0.98115,3.43401 -5.837581,2.04646 -4.856434,-1.38755 z"
       id="path4150"
       style="opacity:1;fill:#555753;fill-opacity:1;stroke:none;stroke-width:20;stroke-linecap:round;stroke-linejoin:round;stroke-miterlimit:4;stroke-dasharray:none;stroke-dashoffset:0;stroke-opacity:1" />
    <path
       style="opacity:1;fill:#babdb6;fill-opacity:1;stroke:none;stroke-width:20;stroke-linecap:round;stroke-linejoin:round;stroke-miterlimit:4;stroke-dasharray:none;stroke-dashoffset:0;stroke-opacity:1"
       d="m 166.88513,448.27132 c -5.15506,0.11258 -9.45788,3.5052 -13.12952,6.784 -4.81226,4.89592 -7.74235,11.75581 -7.63413,18.62553 0.93323,2.0303 2.47787,-0.49481 2.94752,-1.60772 3.87588,-5.97205 9.60956,-10.64833 16.03063,-13.66801 4.10577,-2.10665 8.5828,-3.27123 12.98399,-4.54886 1.35808,-0.49348 0.81165,-2.23812 -0.35048,-2.57808 -3.21611,-2.03295 -7.03551,-3.148 -10.84801,-3.00686 z"
       id="path4186"
       inkscape:connector-curvature="0" />
    <path
       style="opacity:1;fill:#555753;fill-opacity:1;stroke:none;stroke-width:20;stroke-linecap:round;stroke-linejoin:round;stroke-miterlimit:4;stroke-dasharray:none;stroke-dashoffset:0;stroke-opacity:1"
       id="path4152"
       d="m 151.6641,492.33298 c -0.61144,-0.41164 -1.16769,-0.89632 -1.71514,-1.38786 -0.86639,-0.77303 -1.66245,-1.61559 -2.40921,-2.50337 -0.90583,-1.08933 -1.67104,-2.28216 -2.41288,-3.48602 -0.78985,-1.29941 -1.39495,-2.69535 -1.93795,-4.11199 -0.57003,-1.50864 -0.92208,-3.08268 -1.15438,-4.67481 -0.20922,-1.77918 -0.16495,-3.57233 -0.0351,-5.35479 0.18636,-1.92897 0.61211,-3.82157 1.10587,-5.69183 0.51225,-1.87294 1.28887,-3.65079 2.13708,-5.39163 0.86842,-1.77655 1.999,-3.39545 3.19994,-4.95875 1.02782,-1.35871 2.18123,-2.61019 3.42831,-3.76837 1.20686,-1.08433 2.53878,-2.0145 3.87471,-2.93008 1.1923,-0.80669 2.41942,-1.56068 3.69963,-2.21919 1.25086,-0.64161 2.57898,-1.08318 3.94375,-1.40328 1.4979,-0.33325 3.0344,-0.39291 4.56292,-0.3684 1.46,0.0291 2.91039,0.19108 4.34371,0.46386 1.37067,0.26923 2.67569,0.7655 3.96948,1.27816 1.21946,0.47125 2.35225,1.11918 3.46749,1.79351 1.19379,0.70306 2.22804,1.61537 3.20097,2.59262 1.11509,1.12544 2.12074,2.3501 3.0796,3.60918 0.93318,1.20117 1.76758,2.47195 2.54128,3.78017 0.67988,1.19375 1.30042,2.41948 1.85986,3.67389 0.56971,1.26703 1.03167,2.57829 1.49063,3.88834 0.48163,1.35836 0.84656,2.7534 1.17774,4.15476 0.32028,1.37187 0.56259,2.75984 0.7877,4.14993 0.23018,1.39584 0.33544,2.80748 0.38939,4.2198 0.0373,1.38377 -0.0353,2.76346 -0.17455,4.13948 -0.14551,1.33589 -0.43921,2.64682 -0.81828,3.93397 -0.38729,1.26004 -0.96336,2.44438 -1.61761,3.58436 -0.6438,1.11247 -1.44284,2.11668 -2.31021,3.06058 -0.80256,0.83589 -1.6424,1.63589 -2.50761,2.40655 -0.90063,0.79837 -1.87218,1.50087 -2.90022,2.12404 -0.96036,0.58368 -1.9794,1.0565 -3.01746,1.48244 -1.02365,0.40856 -2.07716,0.73474 -3.14852,0.99054 -0.96758,0.20873 -1.94683,0.35563 -2.92653,0.49357 -0.88535,0.13395 -1.78194,0.16416 -2.67536,0.20057 -0.85068,0.0249 -1.69739,-0.0425 -2.54069,-0.14622 -0.42279,-0.053 -0.21362,-0.0267 -0.62752,-0.079 -3.54321,-0.44803 -2.90961,-5.45889 0.6336,-5.01087 l 0,0 c 0.40619,0.0514 0.20159,0.0256 0.61381,0.0773 0.56983,0.071 1.1401,0.12464 1.71545,0.11221 0.72683,-0.0295 1.45721,-0.0473 2.17755,-0.15556 0.83003,-0.11651 1.65972,-0.23955 2.48065,-0.41031 0.81448,-0.18329 1.60876,-0.44825 2.38748,-0.74788 0.79939,-0.32467 1.58416,-0.68569 2.32295,-1.13416 0.76575,-0.45611 1.47976,-0.98319 2.14979,-1.5721 0.74405,-0.65926 1.46226,-1.34806 2.15501,-2.06095 0.61981,-0.66346 1.18615,-1.37394 1.64574,-2.15958 0.4635,-0.79222 0.86821,-1.61793 1.14824,-2.49445 0.29571,-0.98262 0.51746,-1.98568 0.63492,-3.00626 0.11701,-1.1432 0.18025,-2.28852 0.15217,-3.43855 -0.0445,-1.20572 -0.13173,-2.41114 -0.32811,-3.60282 -0.2056,-1.27199 -0.42566,-2.54229 -0.7178,-3.79777 -0.28891,-1.22915 -0.60679,-2.45314 -1.02869,-3.6444 -0.41312,-1.18043 -0.82612,-2.36321 -1.3386,-3.50512 -0.47841,-1.07939 -1.01509,-2.13112 -1.59493,-3.15968 -0.67095,-1.14034 -1.3994,-2.24505 -2.21218,-3.29028 -0.82367,-1.08589 -1.68862,-2.14154 -2.64769,-3.11194 -0.67587,-0.6877 -1.38858,-1.33476 -2.22572,-1.82452 -0.87511,-0.52936 -1.75632,-1.05172 -2.71483,-1.42 -1.00162,-0.39713 -2.0063,-0.79869 -3.06645,-1.01448 -1.14713,-0.2262 -2.31082,-0.34462 -3.48007,-0.37304 -1.11798,-0.0249 -2.24424,0.009 -3.34195,0.24204 -0.9636,0.21158 -1.89313,0.53409 -2.77554,0.97912 -1.09149,0.54982 -2.12258,1.20994 -3.13936,1.88624 -1.13499,0.77762 -2.27158,1.56082 -3.30333,2.47445 -1.04496,0.95736 -1.99407,2.01033 -2.85256,3.13865 -0.99677,1.29151 -1.94172,2.62441 -2.6634,4.09363 -0.7067,1.44413 -1.36168,2.91556 -1.79342,4.46904 -0.41719,1.56875 -0.78014,3.15541 -0.95133,4.77241 -0.10784,1.42043 -0.14963,2.84906 -0.001,4.26885 0.16796,1.22166 0.4435,2.4276 0.87282,3.58586 0.42663,1.12384 0.90015,2.23288 1.5206,3.26567 0.61222,0.9962 1.23838,1.98702 1.98393,2.89074 0.59188,0.71122 1.23062,1.37894 1.92068,1.99637 0.32861,0.29882 0.73455,0.55762 1.04343,0.87288 0.0307,0.0313 -0.0757,-0.0443 -0.11362,-0.0665 3.06247,1.83749 0.46387,6.16848 -2.5986,4.331 z"
       inkscape:connector-curvature="0" />
    <path
       style="opacity:1;fill:#a40000;fill-opacity:1;stroke:none;stroke-width:20;stroke-linecap:round;stroke-linejoin:round;stroke-miterlimit:4;stroke-dasharray:none;stroke-dashoffset:0;stroke-opacity:1"
       d="m 186.33516,506.23905 c -0.52106,0.005 -1.04245,0.0264 -1.5625,0.0664 -0.9539,0.0594 -1.90777,0.12514 -2.85938,0.21484 -0.91933,0.0887 -1.83815,0.18885 -2.75195,0.32422 -0.89645,0.13596 -1.79058,0.28927 -2.67383,0.49609 -0.89385,0.20992 -1.78447,0.43371 -2.65234,0.73633 -0.78682,0.27266 -1.58152,0.53243 -2.32422,0.91406 -0.58241,0.29253 -1.16076,0.59191 -1.70703,0.94922 -0.57006,0.34163 -1.11491,0.7217 -1.63281,1.13867 -0.18579,0.14446 -0.37197,0.31755 -0.58008,0.49805 -0.84818,0.15417 -1.63736,0.74558 -1.98242,1.9082 -0.11857,0.40017 -0.23336,0.80114 -0.37696,1.19336 -0.0665,0.19703 -0.12367,0.39687 -0.18359,0.59571 -0.0514,-0.0858 -0.0879,-0.17254 -0.15039,-0.25782 -0.009,-0.0171 -0.003,-0.0109 -0.0469,-0.0937 -0.19579,-0.38613 -0.40839,-0.76415 -0.66015,-1.11718 -0.20466,-0.30752 -0.38799,-0.62732 -0.59766,-0.93165 -0.24025,-0.33323 -0.44144,-0.69473 -0.71289,-1.00585 -0.24253,-0.28425 -0.47949,-0.57296 -0.72851,-0.85157 -0.28629,-0.29756 -0.58718,-0.57949 -0.89258,-0.85742 -0.32493,-0.29777 -0.65232,-0.59726 -1.01758,-0.8457 -0.3275,-0.2279 -0.64178,-0.47591 -0.99219,-0.66992 -0.38862,-0.2372 -0.78858,-0.45295 -1.18555,-0.67578 -0.39626,-0.18701 -0.78015,-0.40136 -1.20117,-0.53126 -0.46371,-0.17433 -0.93953,-0.31094 -1.41992,-0.43164 -0.44417,-0.098 -0.89296,-0.17116 -1.33984,-0.25586 -0.48077,-0.081 -0.96523,-0.12455 -1.45117,-0.16015 -0.54813,-0.0516 -1.09538,-0.11128 -1.64649,-0.11328 l -0.002,0 c -0.40503,0.0131 -0.81035,0.0276 -1.21485,0.0527 -0.53182,0.0353 -1.06721,0.0738 -1.58007,0.23047 -0.44785,0.14771 -0.8882,0.31793 -1.30274,0.54492 -0.383,0.21257 -0.75731,0.44263 -1.10156,0.71485 -0.37068,0.27378 -0.74326,0.54549 -1.05274,0.89062 -0.32256,0.36275 -0.63158,0.74135 -0.88281,1.1582 -0.19179,0.31595 -0.42468,0.60629 -0.60547,0.92969 -0.227,0.35658 -0.44676,0.71847 -0.65234,1.08789 -0.22301,0.38389 -0.43327,0.77469 -0.64648,1.16406 -0.19095,0.37777 -0.38862,0.75178 -0.54297,1.14649 -0.16105,0.37648 -0.32171,0.75268 -0.45899,1.13867 -0.14872,0.37948 -0.29284,0.75975 -0.41601,1.14844 -0.14462,0.40596 -0.33174,0.79407 -0.47852,1.19922 -0.14065,0.43058 -0.31983,0.8482 -0.45898,1.27929 -0.11073,0.38524 -0.24071,0.76448 -0.37891,1.14063 -0.16457,0.46556 -0.30122,0.93793 -0.45117,1.4082 -0.14977,0.44846 -0.27347,0.9042 -0.41406,1.35547 -0.11804,0.36663 -0.21898,0.73799 -0.32032,1.10938 -0.68398,2.05197 0.80524,3.43627 2.33594,3.46484 0.70471,0.92882 2.00999,1.40104 3.42383,0.55273 0.0663,-0.0635 0.71087,-0.37546 0.35547,-0.19726 0.15367,-0.0224 0.32872,-0.0565 0.49023,-0.0801 -0.24744,0.0365 0.41909,0.0419 0.49219,0.0449 -0.11416,0.007 0.62703,0.12503 0.74023,0.14453 0.19319,0.0635 0.39074,0.10905 0.57813,0.18555 0.28451,0.11189 0.57792,0.19981 0.84765,0.3457 0.28807,0.16025 0.58461,0.30372 0.86524,0.47657 0.29056,0.18991 0.61525,0.34937 0.88672,0.5664 0.26232,0.18284 0.52004,0.36594 0.76562,0.57031 0.24808,0.20938 0.48948,0.42512 0.73047,0.64258 0.19033,0.15739 0.35941,0.32841 0.51953,0.51368 0.17032,0.20191 0.35759,0.3902 0.50977,0.60546 0.21201,0.25106 0.41166,0.50834 0.60547,0.77344 0.13329,0.22776 0.29406,0.45291 0.43945,0.67774 0.0939,0.13408 0.16006,0.28507 0.22266,0.43554 0.0624,0.16243 0.13377,0.31978 0.20507,0.47852 0.62485,1.35028 1.78396,1.75899 2.81641,1.55469 0.52049,0.27111 1.12958,0.35667 1.70899,0.24218 -0.25407,0.61016 -0.50737,1.22095 -0.75,1.83594 -0.32482,0.79169 -0.62801,1.59162 -0.94922,2.38477 -0.32161,0.8743 -0.68226,1.73456 -1.00782,2.60742 -0.40236,0.99389 -0.81757,1.98349 -1.13281,3.00976 -0.33536,0.95561 -0.65486,1.91698 -1.02148,2.86133 -0.40404,1.06159 -0.78677,2.13098 -1.1211,3.2168 -0.30505,0.97353 -0.62531,1.94339 -0.98437,2.89844 -0.42924,1.11338 -0.8734,2.22024 -1.25977,3.34961 -0.34637,1.00867 -0.73032,2.00303 -1.10351,3.00195 -0.0218,-0.0445 -0.0364,-0.0941 -0.0606,-0.13672 0.20115,-0.68392 0.0946,-1.47772 -0.4668,-2.24414 -0.009,-0.0171 -0.005,-0.0109 -0.0488,-0.0937 -0.19579,-0.38613 -0.4084,-0.76416 -0.66016,-1.11719 -0.20466,-0.30752 -0.38799,-0.62731 -0.59766,-0.93164 -0.24025,-0.33324 -0.44144,-0.69474 -0.71289,-1.00586 -0.24253,-0.28425 -0.47949,-0.57295 -0.72851,-0.85156 -0.28628,-0.29756 -0.58718,-0.57949 -0.89258,-0.85742 -0.32493,-0.29777 -0.65232,-0.59727 -1.01758,-0.84571 -0.3275,-0.2279 -0.64178,-0.47591 -0.99219,-0.66992 -0.38862,-0.2372 -0.78857,-0.45295 -1.18554,-0.67578 -0.39626,-0.18701 -0.78016,-0.40135 -1.20118,-0.53125 -0.46371,-0.17434 -0.93953,-0.31094 -1.41992,-0.43164 -0.44417,-0.098 -0.89296,-0.17116 -1.33984,-0.25586 -0.48077,-0.081 -0.96522,-0.12455 -1.45117,-0.16015 -0.54812,-0.0516 -1.09538,-0.11129 -1.64649,-0.11329 -0.40503,0.0131 -0.81034,0.0276 -1.21484,0.0527 -0.53182,0.0353 -1.06722,0.0738 -1.58008,0.23047 -0.44785,0.14771 -0.88819,0.31793 -1.30273,0.54492 -0.383,0.21257 -0.75732,0.44262 -1.10157,0.71484 -0.37068,0.27378 -0.74325,0.5455 -1.05273,0.89063 -0.32256,0.36275 -0.63158,0.74135 -0.88281,1.1582 -0.19179,0.31595 -0.42468,0.60629 -0.60547,0.92969 -0.227,0.35658 -0.44677,0.71847 -0.65235,1.08789 -0.22301,0.38389 -0.43327,0.77468 -0.64648,1.16406 -0.19095,0.37776 -0.38862,0.75178 -0.54297,1.14649 -0.16105,0.37648 -0.3217,0.75268 -0.45898,1.13867 -0.14872,0.37948 -0.29285,0.75975 -0.41602,1.14843 -0.14462,0.40597 -0.33173,0.79407 -0.47851,1.19922 -0.14065,0.43058 -0.31984,0.84821 -0.45899,1.2793 -0.11073,0.38524 -0.2407,0.76448 -0.37891,1.14063 -0.16456,0.46556 -0.30122,0.93793 -0.45117,1.4082 -0.14977,0.44846 -0.27347,0.9042 -0.41406,1.35547 -0.11804,0.36663 -0.21897,0.73798 -0.32031,1.10937 -0.68398,2.05197 0.80524,3.43628 2.33594,3.46485 0.70471,0.92882 2.00998,1.40104 3.42382,0.55273 0.0663,-0.0635 0.71087,-0.37547 0.35547,-0.19727 0.15367,-0.0224 0.32873,-0.0565 0.49024,-0.0801 -0.24744,0.0365 0.41908,0.0419 0.49218,0.0449 -0.11416,0.007 0.62704,0.12503 0.74024,0.14453 0.19319,0.0635 0.39073,0.10905 0.57812,0.18555 0.28451,0.11189 0.57792,0.19981 0.84766,0.3457 0.28806,0.16025 0.5846,0.30371 0.86523,0.47656 0.29056,0.18991 0.61525,0.34938 0.88672,0.56641 0.26232,0.18284 0.52005,0.36593 0.76563,0.57031 0.24808,0.20937 0.48948,0.42512 0.73047,0.64258 0.19033,0.15739 0.35941,0.32841 0.51953,0.51367 0.17032,0.20192 0.35758,0.39021 0.50976,0.60547 0.21201,0.25106 0.41166,0.50834 0.60547,0.77344 0.13329,0.22776 0.29407,0.4529 0.43946,0.67773 0.0939,0.13408 0.16005,0.28508 0.22265,0.43555 0.0624,0.16243 0.13378,0.31977 0.20508,0.47851 0.62484,1.35028 1.78396,1.75899 2.81641,1.55469 0.65304,0.34016 1.44484,0.40044 2.14257,0.11719 -0.0984,0.22269 -0.1891,0.44859 -0.29101,0.66992 -0.19214,0.39031 -0.38673,0.78434 -0.58594,1.16797 -0.61497,1.11297 -0.44117,2.13232 0.10352,2.85156 0.60391,1.36347 2.3658,2.2015 4.01172,0.88477 0.30096,-0.27306 0.59867,-0.54433 0.91992,-0.79297 0.3552,-0.27724 0.71124,-0.55601 1.10351,-0.7793 0.44857,-0.29889 0.92567,-0.54382 1.40625,-0.78515 0.54666,-0.27463 1.13421,-0.45674 1.71094,-0.65625 0.70436,-0.24508 1.42903,-0.42188 2.1543,-0.5918 0.75175,-0.17527 1.51249,-0.30292 2.27539,-0.41797 0.82379,-0.12141 1.65176,-0.21131 2.48047,-0.29102 0.89489,-0.084 1.79047,-0.14537 2.6875,-0.20117 0.863,-0.065 1.72942,-0.0759 2.59375,-0.0351 0.97098,0.0451 1.93501,0.17783 2.89257,0.33984 1.02847,0.17168 2.04657,0.40402 3.05079,0.68359 1.01205,0.27211 2.01357,0.58177 3.01171,0.90039 0.91622,0.29349 1.8129,0.63397 2.70118,1.00196 0.8387,0.34437 1.61845,0.81024 2.39648,1.27148 0.92808,0.55491 1.81561,1.17354 2.69141,1.80664 0.95565,0.69062 1.87603,1.42655 2.76953,2.19532 0.94327,0.81676 1.83427,1.69111 2.73047,2.55859 0.89688,0.85878 1.77483,1.73687 2.65429,2.61328 0.86719,0.8708 1.76165,1.71357 2.64063,2.57227 0.87044,0.85988 1.77265,1.68757 2.66601,2.52343 0.9042,0.80236 1.79588,1.61612 2.66993,2.45118 0.91746,0.90537 1.90119,1.74009 2.87109,2.58789 0.99306,0.8957 2.01936,1.75242 3.03906,2.61718 1.01299,0.83678 2.01415,1.68755 3.04688,2.5 1.14173,0.89458 2.31159,1.75388 3.51172,2.56836 1.3395,0.91217 2.71754,1.76247 4.12304,2.56836 1.50584,0.8693 3.07592,1.61504 4.66016,2.32813 1.46791,0.6367 2.96098,1.21659 4.45117,1.79883 1.29794,0.49228 2.61042,0.94718 3.92578,1.39062 1.31871,0.43879 2.66415,0.78266 4.01953,1.08594 1.40403,0.30913 2.81465,0.58806 4.23243,0.82617 1.55349,0.25179 3.11631,0.43208 4.67968,0.60937 1.42621,0.15613 2.85302,0.30769 4.28516,0.39649 1.50971,0.0723 3.01915,-0.0173 4.52344,-0.13867 1.42603,-0.12047 2.83511,-0.35911 4.24023,-0.62305 1.60682,-0.32219 3.16171,-0.84084 4.70899,-1.37109 1.57738,-0.55007 3.16453,-1.07669 4.73632,-1.64258 1.42399,-0.49683 2.80955,-1.09023 4.20899,-1.65039 1.37954,-0.56621 2.7534,-1.14977 4.12109,-1.74414 1.11069,-0.47424 2.20207,-0.99054 3.30664,-1.47852 1.09444,-0.47248 2.14209,-1.04178 3.19532,-1.59765 1.00081,-0.52952 1.99634,-1.06789 2.99804,-1.59571 1.12327,-0.57304 2.24169,-1.15696 3.35352,-1.75195 1.01124,-0.56492 2.04626,-1.0864 3.06836,-1.63086 0.15331,-0.0837 0.30567,-0.1663 0.45898,-0.25 1.7105,-0.93414 1.76061,-2.67506 0.94922,-3.78906 0.13829,-0.41912 0.1863,-0.90314 0.082,-1.45899 -0.004,0.41964 -0.0849,-1.16906 -0.0879,-0.77343 -0.0558,-0.44378 -0.1115,-0.88723 -0.1875,-1.32813 -0.0832,-0.47179 -0.17256,-0.94344 -0.28125,-1.41016 -0.10995,-0.46078 -0.22581,-0.91867 -0.3457,-1.37695 -0.14241,-0.51803 -0.16971,-1.06582 -0.31641,-1.58398 -0.13309,-0.56294 -0.28049,-1.12226 -0.42773,-1.68164 -0.1567,-0.64116 -0.25549,-1.29578 -0.42774,-1.9336 -0.16312,-0.66734 -0.3178,-1.33628 -0.46289,-2.00781 -0.19321,-0.78766 -0.40271,-1.57287 -0.67969,-2.33594 -0.26611,-0.70774 -0.56551,-1.4016 -0.88281,-2.08789 -0.30705,-0.70583 -0.63926,-1.39935 -0.96289,-2.09765 -0.32038,-0.65483 -0.64753,-1.30699 -0.92773,-1.98047 -0.31,-0.72698 -0.6237,-1.4524 -0.98828,-2.1543 -0.29648,-0.58119 -0.60014,-1.1586 -0.85938,-1.75781 -0.27192,-0.61781 -0.54149,-1.23574 -0.82226,-1.84961 -0.16812,-0.38017 -0.32724,-0.76347 -0.48829,-1.14649 0.81045,-0.45115 1.61791,-0.90725 2.4375,-1.34179 1.24595,-0.68862 2.48193,-1.39327 3.70313,-2.125 0.92022,-0.55682 1.84743,-1.10458 2.76953,-1.65821 1.01834,-0.59679 2.01874,-1.2214 3.01172,-1.85937 0.97121,-0.62493 1.9415,-1.25076 2.90039,-1.89453 1.10993,-0.76495 2.23075,-1.51976 3.27734,-2.3711 0.93928,-0.7602 1.84512,-1.55853 2.70313,-2.41015 0.9141,-0.87016 1.80212,-1.76653 2.64844,-2.70313 0.78773,-0.8713 1.54607,-1.76976 2.22656,-2.72851 0.71218,-0.92936 1.39896,-1.8767 2.08398,-2.82618 0.71133,-1.00815 1.3953,-2.03447 2.05664,-3.07617 0.69685,-1.06896 1.36463,-2.15965 1.94532,-3.29687 0.46739,-0.91251 0.90402,-1.83946 1.34765,-2.76367 0.39209,-0.84218 0.78125,-1.68515 1.12891,-2.54688 0.23848,-0.63085 0.4786,-1.26242 0.66797,-1.91015 0.15066,-0.51226 0.28804,-1.02957 0.42773,-1.54493 0.0888,-0.39513 0.20373,-0.78283 0.29297,-1.17773 0.88136,-1.95608 -1.16168,-4.51523 -3.66797,-3.14649 -0.13893,0.0759 -0.27707,0.15262 -0.41601,0.22852 -1.02364,0.54731 -2.06326,1.06721 -3.07618,1.63477 -1.1016,0.59076 -2.21108,1.16766 -3.32421,1.73632 -1.00203,0.52871 -1.99871,1.06755 -3,1.59766 -0.94992,0.50144 -1.89383,1.01691 -2.88086,1.44336 -1.09482,0.48445 -2.17649,0.99595 -3.27735,1.4668 -1.32237,0.5753 -2.65072,1.139 -3.98437,1.6875 -1.34467,0.53886 -2.67674,1.10964 -4.04492,1.58789 -1.54626,0.55842 -3.10832,1.07254 -4.66016,1.61523 -1.31698,0.45173 -2.63789,0.90268 -4.00391,1.18555 -1.23143,0.23143 -2.46698,0.44591 -3.71679,0.55273 -1.26692,0.10291 -2.53673,0.18476 -3.8086,0.13086 -1.34463,-0.0797 -2.68238,-0.23014 -4.02148,-0.37304 -1.47441,-0.16712 -2.95071,-0.33631 -4.41602,-0.57227 -1.3292,-0.22235 -2.65051,-0.48613 -3.96679,-0.77539 -1.18248,-0.26296 -2.35706,-0.56059 -3.50782,-0.94141 -1.23988,-0.41748 -2.4753,-0.84632 -3.69922,-1.30859 -1.41174,-0.55132 -2.82497,-1.10109 -4.21679,-1.70117 -1.43471,-0.64413 -2.85737,-1.31888 -4.22071,-2.10547 -1.29686,-0.74248 -2.56914,-1.52586 -3.80468,-2.36719 -1.10329,-0.74434 -2.17147,-1.53884 -3.22071,-2.35742 -0.98446,-0.77249 -1.93621,-1.58574 -2.90234,-2.38086 -1.00056,-0.84797 -2.00646,-1.68955 -2.98047,-2.56836 -0.91389,-0.79884 -1.84302,-1.58194 -2.70703,-2.43555 -0.88676,-0.84693 -1.78843,-1.67593 -2.70703,-2.48828 -0.86691,-0.8111 -1.74316,-1.61291 -2.58789,-2.44726 -0.86721,-0.84701 -1.74979,-1.68024 -2.60547,-2.53907 -0.89691,-0.89329 -1.79063,-1.78854 -2.70508,-2.66406 -0.96775,-0.9367 -1.93127,-1.87932 -2.95117,-2.75976 -1.00207,-0.86048 -2.03428,-1.68553 -3.10547,-2.45899 -1.00045,-0.72215 -2.01366,-1.42657 -3.07422,-2.05859 -0.9842,-0.58204 -1.97571,-1.15758 -3.03711,-1.58985 -1.01852,-0.42184 -2.04951,-0.81126 -3.09961,-1.14843 -1.06114,-0.33872 -2.1255,-0.66696 -3.20117,-0.95703 -1.17363,-0.32267 -2.35913,-0.59833 -3.56055,-0.79688 -1.16197,-0.19295 -2.33182,-0.35495 -3.50976,-0.40625 -0.52084,-0.0211 -1.04145,-0.0308 -1.5625,-0.0254 z m -42.5332,16.33789 c 0.0596,0.11724 0.11806,0.23407 0.19726,0.33789 -0.0351,0.004 -0.0704,8.6e-4 -0.10547,0.006 -0.0711,0.0109 -0.14182,0.0255 -0.21289,0.0371 0.0394,-0.12719 0.0819,-0.25367 0.1211,-0.38086 z m 161.05859,18.3457 c -0.0285,0.0623 -0.0553,0.12526 -0.084,0.1875 -0.0131,-0.0301 -0.0206,-0.0596 -0.0352,-0.0898 -0.0158,-0.005 -0.0311,-0.007 -0.0469,-0.0117 0.0553,-0.0287 0.11072,-0.0572 0.16602,-0.0859 z m -178.23047,25.59571 c 0.0596,0.11724 0.11807,0.23407 0.19727,0.33789 -0.0351,0.004 -0.0704,8.6e-4 -0.10547,0.006 -0.0711,0.0109 -0.14182,0.0255 -0.21289,0.0371 0.0394,-0.12719 0.0819,-0.25367 0.12109,-0.38086 z m 153.64453,37.43945 c 0.007,0.0194 0.0102,0.0434 0.0176,0.0625 -0.0238,0.0124 -0.0466,0.0267 -0.0703,0.0391 0.019,-0.0331 0.0346,-0.068 0.0527,-0.10156 z"
       id="path4154"
       inkscape:connector-curvature="0" />
    <path
       style="opacity:1;fill:#cc0000;fill-opacity:1;stroke:none;stroke-width:20;stroke-linecap:round;stroke-linejoin:round;stroke-miterlimit:4;stroke-dasharray:none;stroke-dashoffset:0;stroke-opacity:1"
       d="m 282.37305,589.71289 c -0.11554,10e-4 -0.23984,0.0165 -0.375,0.0449 -1.25619,1.12213 -0.91987,3.14463 -1.48633,4.64258 -1.44406,6.07628 -3.99839,11.79063 -6.57227,17.4668 -0.12318,0.50833 0.0239,0.84843 0.28907,1.0664 0.98364,-0.52081 1.96257,-1.0495 2.94726,-1.56836 1.12327,-0.57304 2.24169,-1.15696 3.35352,-1.75195 1.01124,-0.56492 2.04626,-1.0864 3.06836,-1.63086 0.15331,-0.0837 0.30567,-0.1663 0.45898,-0.25 1.7105,-0.93414 1.76061,-2.67506 0.94922,-3.78906 0.13829,-0.41912 0.18633,-0.90313 0.082,-1.45898 -0.004,0.41963 -0.0849,-1.16907 -0.0879,-0.77344 -0.0558,-0.44378 -0.1115,-0.88723 -0.1875,-1.32813 -0.0832,-0.47179 -0.17256,-0.94343 -0.28125,-1.41015 -0.10995,-0.46078 -0.22581,-0.91868 -0.3457,-1.37696 -0.14241,-0.51803 -0.16971,-1.06582 -0.31641,-1.58398 -0.13309,-0.56294 -0.28049,-1.12226 -0.42773,-1.68164 -0.1567,-0.64116 -0.25549,-1.29578 -0.42774,-1.9336 -0.16312,-0.66734 -0.3178,-1.33628 -0.46289,-2.00781 -0.0555,-0.22638 -0.1183,-0.45027 -0.17773,-0.67578 z m -2.09766,14.24414 c 0.007,0.0194 0.0102,0.0434 0.0176,0.0625 -0.0238,0.0124 -0.0466,0.0267 -0.0703,0.0391 0.019,-0.0331 0.0346,-0.068 0.0527,-0.10156 z"
       id="path4209"
       inkscape:connector-curvature="0" />
    <path
       style="opacity:1;fill:#cc0000;fill-opacity:1;stroke:none;stroke-width:20;stroke-linecap:round;stroke-linejoin:round;stroke-miterlimit:4;stroke-dasharray:none;stroke-dashoffset:0;stroke-opacity:1"
       d="m 186.33594,506.23828 c -0.52106,0.005 -1.04245,0.0264 -1.5625,0.0664 -0.63333,0.0394 -1.26579,0.0924 -1.89844,0.14258 -0.87609,0.97419 -1.48429,2.29178 -2.34961,3.27148 -6.2602,9.2199 -12.24899,18.7974 -15.87695,29.40039 -4.35768,12.74807 -7.5175,25.87827 -10.40235,39.02734 -0.0501,0.98133 -0.83725,2.4937 -0.3789,3.36719 0.7537,-0.10618 1.51001,-0.19276 2.26758,-0.26562 0.89489,-0.084 1.79047,-0.14537 2.6875,-0.20117 0.863,-0.065 1.72942,-0.076 2.59375,-0.0352 0.97098,0.0451 1.93501,0.17783 2.89257,0.33984 1.02847,0.17168 2.04657,0.40403 3.05079,0.6836 1.01204,0.27211 2.01357,0.58177 3.01171,0.90039 0.91622,0.29349 1.8129,0.63396 2.70118,1.00195 0.8387,0.34437 1.61845,0.81024 2.39648,1.27148 0.92808,0.55491 1.81561,1.17354 2.69141,1.80664 0.95565,0.69062 1.87603,1.42655 2.76953,2.19532 0.94327,0.81676 1.83427,1.69111 2.73047,2.55859 0.89688,0.85878 1.77483,1.73687 2.65429,2.61328 0.86719,0.8708 1.76165,1.71357 2.64063,2.57227 0.0665,0.0657 0.13627,0.12802 0.20312,0.19336 0.87509,-0.57807 0.61443,-2.42245 0.96875,-3.41211 3.14416,-17.10075 7.02043,-34.03484 12.62891,-50.49805 2.84756,-8.37467 7.54712,-16.01153 12.01562,-23.48633 -0.44353,-0.43854 -0.88324,-0.88095 -1.33398,-1.3125 -0.96775,-0.9367 -1.93127,-1.87932 -2.95117,-2.75976 -1.00207,-0.86048 -2.03428,-1.68553 -3.10547,-2.45899 -1.00045,-0.72215 -2.01366,-1.42657 -3.07422,-2.05859 -0.9842,-0.58204 -1.97571,-1.15757 -3.03711,-1.58984 -1.01852,-0.42184 -2.04951,-0.81127 -3.09961,-1.14844 -1.06114,-0.33872 -2.1255,-0.66696 -3.20117,-0.95703 -1.17363,-0.32267 -2.35913,-0.59833 -3.56055,-0.79688 -1.16197,-0.19295 -2.33182,-0.35495 -3.50976,-0.40625 -0.52084,-0.0211 -1.04145,-0.0308 -1.5625,-0.0254 z"
       id="path4196"
       inkscape:connector-curvature="0" />
    <path
       style="opacity:1;fill:#cc0000;fill-opacity:1;stroke:none;stroke-width:20;stroke-linecap:round;stroke-linejoin:round;stroke-miterlimit:4;stroke-dasharray:none;stroke-dashoffset:0;stroke-opacity:1"
       d="m 309.24414,533.21289 c -0.42113,0.0103 -0.87382,0.12813 -1.34375,0.38477 -0.13893,0.0759 -0.27708,0.15261 -0.41601,0.22851 -1.02365,0.54731 -2.06326,1.06721 -3.07618,1.63477 -1.1016,0.59076 -2.21109,1.16767 -3.32422,1.73633 -1.00203,0.52871 -1.99871,1.06754 -3,1.59765 -0.94992,0.50144 -1.89382,1.01691 -2.88086,1.44336 -1.09482,0.48445 -2.17648,0.99595 -3.27734,1.4668 -0.81096,0.35281 -1.62805,0.6919 -2.44336,1.03515 -0.1206,1.07491 0.53072,2.32054 0.63477,3.36719 1.32856,4.50571 1.71505,9.24672 1.54297,13.95899 0.1887,1.67066 -0.39989,3.56301 0.3164,5.09961 0.0222,0.0183 0.0443,0.0283 0.0664,0.0449 0.67946,-0.47501 1.35294,-0.95926 1.99609,-1.48242 0.93928,-0.7602 1.84512,-1.55854 2.70313,-2.41016 0.9141,-0.87016 1.80211,-1.76653 2.64843,-2.70313 0.78774,-0.8713 1.54608,-1.76976 2.22657,-2.72851 0.71218,-0.92936 1.39896,-1.87669 2.08398,-2.82617 0.71133,-1.00815 1.3953,-2.03448 2.05664,-3.07617 0.69685,-1.06896 1.36462,-2.15966 1.94531,-3.29688 0.4674,-0.91251 0.90403,-1.83946 1.34766,-2.76367 0.39209,-0.84218 0.78125,-1.68515 1.12891,-2.54688 0.23848,-0.63085 0.4786,-1.26242 0.66797,-1.91015 0.15066,-0.51226 0.28804,-1.02957 0.42773,-1.54492 0.0888,-0.39513 0.20373,-0.78284 0.29297,-1.17774 0.7161,-1.58931 -0.49931,-3.576 -2.32422,-3.53125 z m -4.38281,7.70899 c -0.0285,0.0623 -0.0553,0.12526 -0.084,0.1875 -0.0131,-0.0301 -0.0205,-0.0597 -0.0351,-0.0898 -0.0158,-0.005 -0.0311,-0.007 -0.0469,-0.0117 0.0553,-0.0287 0.11072,-0.0572 0.16602,-0.0859 z"
       id="path4207"
       inkscape:connector-curvature="0" />
  </g>
</svg>
