<?xml version="1.0"?>
<svg xmlns="http://www.w3.org/2000/svg" xmlns:xlink="http://www.w3.org/1999/xlink" xmlns:svgjs="http://svgjs.com/svgjs" version="1.1" width="512" height="512" x="0" y="0" viewBox="0 0 512 512" style="enable-background:new 0 0 512 512" xml:space="preserve"><g>
<g xmlns="http://www.w3.org/2000/svg" id="XMLID_2925_">
	<g id="XMLID_599_">
		<path id="XMLID_600_" d="M502,121.037c2.63,0,5.21-1.07,7.069-2.93c1.86-1.86,2.931-4.44,2.931-7.07s-1.07-5.21-2.931-7.07    c-1.859-1.86-4.439-2.93-7.069-2.93s-5.21,1.07-7.07,2.93c-1.86,1.86-2.93,4.44-2.93,7.07s1.069,5.21,2.93,7.07    C496.79,119.967,499.37,121.037,502,121.037z" fill="#f5f5f5" data-original="#000000" style=""/>
		<path id="XMLID_1074_" d="M63.124,196.541c0.567,0.866,1.267,1.638,2.072,2.289l28.096,22.721l52.59,139.423    c0.936,2.481,2.819,4.489,5.236,5.582c1.307,0.592,2.713,0.889,4.12,0.889c1.194,0,2.391-0.214,3.529-0.644l133.863-50.494    c5.167-1.949,7.776-7.719,5.827-12.886l-53.943-143.009c-1.949-5.167-7.716-7.779-12.886-5.827l-23.328,8.799l-4.554-21.002    c-3.829-17.658-14.218-32.902-29.251-42.924l-47.265-31.51l-20.73-30.176L84.984,4.576c-3.004-4.634-9.197-5.958-13.83-2.953    c-4.635,3.004-5.957,9.196-2.953,13.831l16.014,24.708L4.824,88.925c-2.305,1.415-3.938,3.703-4.526,6.342    s-0.084,5.404,1.399,7.665L63.124,196.541z M276.216,301.124l-115.15,43.436l-37.016-98.134l15.05,12.171    c5.984,4.839,13.234,7.23,20.466,7.229c8.193,0,16.364-3.07,22.636-9.129c11.703-11.305,13.234-29.696,3.562-42.78l-11.94-16.152    l55.509-20.938L276.216,301.124z M184.202,146.621l5.182,23.899l-27.918,10.531l-17.405-23.543    c-3.282-4.441-9.544-5.378-13.985-2.097c-4.441,3.283-5.38,9.545-2.097,13.986l41.701,56.41    c3.731,5.048,3.141,12.144-1.374,16.506c-4.557,4.401-11.706,4.715-16.631,0.733l-72.688-58.783l-33.812-51.527l74.674-45.672    l43.553,29.036C174.092,123.226,181.479,134.065,184.202,146.621z M95.317,56.814l10.55,15.357l-71.67,43.835l-10.126-15.432    L95.317,56.814z" fill="#f5f5f5" data-original="#000000" style=""/>
		<path id="XMLID_1126_" d="M502,491.987H398.68l20.085-53.247l28.096-22.721c0.806-0.651,1.505-1.423,2.072-2.289l61.427-93.609    c1.483-2.261,1.988-5.026,1.399-7.665s-2.222-4.927-4.526-6.343l-79.754-48.985l62.756-106.447    c2.805-4.757,1.222-10.888-3.535-13.693c-4.762-2.806-10.889-1.222-13.693,3.536l-67.568,114.608l-20.614,30.005l-46.247,30.832    c-15.69,10.459-26.531,26.368-30.526,44.797l-4.295,19.807l-23.328-8.799c-2.48-0.937-5.233-0.849-7.649,0.245    c-2.417,1.093-4.301,3.101-5.236,5.582l-43.147,114.387H50.005c-5.522,0-10,4.478-10,10s4.478,10,10,10H502    c5.522,0,10-4.478,10-10S507.522,491.987,502,491.987z M477.86,333.193l-71.67-43.835l10.549-15.355l71.247,43.759L477.86,333.193    z M327.598,365.004c2.889-13.326,10.729-24.831,22.074-32.395l42.536-28.358l74.674,45.672L433.07,401.45l-72.688,58.783    c-4.926,3.981-12.075,3.669-16.631-0.733c-4.515-4.361-5.105-11.457-1.374-16.506l41.7-56.409    c3.283-4.441,2.345-10.702-2.097-13.985c-4.439-3.282-10.702-2.345-13.985,2.097l-17.404,23.543l-27.918-10.531L327.598,365.004z     M245.771,491.987l36.955-97.972l55.508,20.938l-11.94,16.152c-9.673,13.084-8.142,31.476,3.561,42.779    c6.273,6.06,14.442,9.131,22.637,9.13c7.231,0,14.482-2.392,20.466-7.23l15.049-12.17l-10.703,28.374H245.771z" fill="#f5f5f5" data-original="#000000" style=""/>
		<path id="XMLID_1135_" d="M10,491.987c-5.522,0-10,4.478-10,10s4.478,10,10,10h0.005c5.522,0,9.998-4.478,9.998-10    S15.522,491.987,10,491.987z" fill="#f5f5f5" data-original="#000000" style=""/>
	</g>
</g>















</g></svg>
